<svg xmlns="http://www.w3.org/2000/svg" width="240" height="38" style=""><rect id="backgroundrect" width="100%" height="100%" x="0" y="0" fill="none" stroke="none"/><g class="currentLayer" style=""><title>Layer 1</title><g fill-rule="nonzero" fill="#ffffff" id="svg_1" class="selected" stroke="#ffffff" stroke-opacity="1" fill-opacity="1"><path d="M27.95768409204483,0.6399999775886537 C20.23268409204483,0.6359999775886537 12.17268409204483,2.3759999775886538 4.03768409204483,4.6329999775886535 c-1.033,0.20800000000000002 -2.041,0.8840000000000001 -2.574,1.7200000000000002 C0.9736840920448303,7.1409999775886535 0.7956840920448304,7.931999977588653 0.6426840920448305,8.760999977588654 c-0.79,4.428 -0.6940000000000002,8.776 -0.53,13.594 c0.036000000000000004,1.103 0.2,2.41 0.7150000000000001,3.205 c0.538,0.803 1.46,1.3130000000000002 2.561,1.48 a95.99,95.99 0 0 0 4.232,0.525 l-0.31200000000000006,8.698 c-0.04800000000000001,0.6920000000000002 0.29000000000000004,1.267 0.7100000000000001,1.598 c0.37600000000000006,0.28600000000000003 0.795,0.41300000000000003 1.225,0.44500000000000006 c0.8600000000000001,0.06500000000000002 1.8690000000000002,-0.30300000000000005 2.37,-1.2570000000000001 c2.195,-4.224 3.572,-6.089 6.317,-8.895 c7.158,0.17600000000000002 13.407,-0.22200000000000003 20.482,-0.7450000000000001 c2.501,-0.06500000000000002 4.218,-2.11 4.672000000000001,-3.7430000000000003 c1.357,-4.232 1.568,-9.456 1.7120000000000002,-14.737 c0.06100000000000001,-2.093 -0.6650000000000001,-4.148 -1.9500000000000002,-5.234 c-1.222,-0.991 -2.702,-1.35 -4.058,-1.718 C35.02168409204483,1.1239999775886536 31.253684092044832,0.6659999775886536 27.95768409204483,0.6399999775886537 zm10.29,3.31 c1.358,0.36900000000000005 2.555,0.7240000000000001 3.31,1.3370000000000002 c1.26,1.339 1.218,2.23 1.2,3.6750000000000003 c-0.14200000000000002,5.122 -0.38800000000000007,10.093 -1.544,13.86 c-0.49800000000000005,1.405 -1.366,2.4050000000000002 -3.006,2.556 c-7.208,0.533 -13.462,0.9450000000000001 -20.707,0.7390000000000001 a1.032,1.032 0 0 0 -0.7630000000000001,0.30200000000000005 c-3.044,3.074 -4.601,5.21 -6.921,9.676 c-0.05400000000000001,0.10200000000000001 -0.171,0.16400000000000003 -0.31500000000000006,0.17500000000000002 c-0.09700000000000003,-0.005000000000000001 -0.136,-0.08000000000000002 -0.14200000000000002,-0.14800000000000002 l0.31400000000000006,-9.432 c0.019000000000000003,-0.509 -0.401,-0.995 -0.907,-1.05 a95.48,95.48 0 0 1 -5.06,-0.6200000000000001 c-0.7260000000000001,-0.11100000000000002 -0.994,-0.31000000000000005 -1.193,-0.6060000000000001 c-0.3460000000000001,-0.8250000000000001 -0.3380000000000001,-1.335 -0.36500000000000005,-2.128 c-0.16200000000000003,-4.775 -0.24200000000000002,-8.948 0.49100000000000005,-13.1 c0.06800000000000002,-0.6140000000000001 0.29800000000000004,-1.242 0.542,-1.7670000000000001 c0.404,-0.6320000000000001 1.023,-0.7250000000000001 1.6440000000000001,-0.8970000000000001 c7.956,-2.197 15.74,-3.84 23.068,-3.845 c3.592,0.13 7.364,0.49000000000000005 10.354,1.2730000000000001 zm-27.479,8.09 c-1.096,1.3130000000000002 -0.987,3.096 -0.14,4.29 c0.44200000000000006,0.6250000000000001 1.1320000000000001,1.1280000000000001 1.972,1.242 c1.091,0.09000000000000002 1.783,-0.35200000000000004 2.5300000000000002,-0.8600000000000001 c1.353,-1.176 1.49,-3.228 0.461,-4.71 c-0.524,-0.7550000000000001 -1.362,-1.208 -2.218,-1.24 c-1.172,0.012000000000000002 -1.968,0.535 -2.605,1.2770000000000001 zm11.856,-1.072 c-1.092,0.035 -1.975,0.791 -2.5140000000000002,1.6070000000000002 c-0.6170000000000001,0.933 -0.977,2.101 -0.47800000000000004,3.246 c0.9600000000000001,2.203 4.277,2.176 5.6,-0.06300000000000001 c0.6100000000000001,-1.032 0.454,-2.205 0,-3.056 c-0.452,-0.8500000000000001 -1.1360000000000001,-1.5430000000000001 -2.1310000000000002,-1.702 a2.494,2.494 0 0 0 -0.47700000000000004,-0.03200000000000001 zm9.625,0.20700000000000002 c-0.3400000000000001,-0.008000000000000002 -0.6900000000000002,0.024000000000000004 -1.018,0.11100000000000002 c-1.312,0.35000000000000003 -2.4290000000000003,1.7040000000000002 -2.26,3.4370000000000003 c0.08600000000000002,0.8720000000000001 0.48700000000000004,1.722 1.21,2.308 c0.7230000000000001,0.5850000000000001 1.7730000000000001,0.8470000000000001 2.88,0.6200000000000001 c1.272,-0.26 2.06,-1.2850000000000001 2.323,-2.275 c0.263,-0.99 0.19700000000000004,-1.999 -0.41400000000000003,-2.817 a3.47,3.47 0 0 0 -2.72,-1.3840000000000001 zm-18.965,1.6230000000000002 c0.24500000000000002,0.0020000000000000005 0.43800000000000006,0.08000000000000002 0.6370000000000001,0.36600000000000005 c0.44500000000000006,0.6420000000000001 0.32100000000000006,1.6150000000000002 -0.128,2.005 c-0.44700000000000006,0.39000000000000007 -0.7260000000000001,0.42400000000000004 -0.922,0.3980000000000001 c-0.19600000000000004,-0.027000000000000007 -0.3950000000000001,-0.16200000000000003 -0.5730000000000001,-0.41400000000000003 c-0.3400000000000001,-0.48000000000000004 -0.44000000000000006,-1.256 0.007000000000000002,-1.81 c0.23800000000000002,-0.31600000000000006 0.6750000000000002,-0.513 0.98,-0.545 zm9.483,0.22300000000000003 c0.038000000000000006,0.006000000000000002 0.464,0.253 0.6680000000000001,0.6360000000000001 c0.20400000000000001,0.38300000000000006 0.24200000000000002,0.7390000000000001 0.04800000000000001,1.066 c-0.5770000000000001,0.976 -1.804,0.7120000000000001 -1.99,0.28700000000000003 c-0.07,-0.16200000000000003 -0.017000000000000005,-0.8130000000000001 0.32000000000000006,-1.32 c0.3350000000000001,-0.509 0.7570000000000001,-0.7000000000000001 0.9540000000000001,-0.6700000000000002 zm10.564,0.7480000000000001 c0.06200000000000001,0.08300000000000002 0.21300000000000002,0.6400000000000001 0.09600000000000003,1.082 c-0.11800000000000002,0.44200000000000006 -0.31000000000000005,0.7150000000000001 -0.78,0.811 c-0.6020000000000001,0.12400000000000001 -0.9400000000000001,0 -1.193,-0.20700000000000002 c-0.254,-0.20500000000000002 -0.42500000000000004,-0.552 -0.462,-0.923 c-0.09000000000000002,-0.92 0.24000000000000002,-1.133 0.7640000000000001,-1.2730000000000001 c0.6100000000000001,-0.15000000000000002 1.3,0.11200000000000002 1.5750000000000002,0.51 z" fill="#ffffff" id="svg_2" stroke="#ffffff" stroke-opacity="1" fill-opacity="1"/><path d="M57.60068409204483,4.756999977588654 c0.016000000000000004,-0.26 0.11100000000000002,-0.49400000000000005 0.28700000000000003,-0.7010000000000001 a0.8750000000000001,0.8750000000000001 0 0 1 0.7010000000000001,-0.31000000000000005 h6.8260000000000005 c0.23,0 0.467,0.09600000000000003 0.7120000000000001,0.28700000000000003 a0.8830000000000001,0.8830000000000001 0 0 1 0.36800000000000005,0.7240000000000001 v10.893 h11.421 V4.756999977588654 c0,-0.276 0.09600000000000003,-0.513 0.28700000000000003,-0.7120000000000001 c0.19200000000000003,-0.2 0.44000000000000006,-0.30000000000000004 0.7470000000000001,-0.30000000000000004 h6.734 c0.30600000000000005,0 0.5740000000000001,0.07700000000000001 0.804,0.23 c0.23,0.15400000000000003 0.3450000000000001,0.3990000000000001 0.3450000000000001,0.7360000000000001 V36.860999977588655 c0,0.3370000000000001 -0.1,0.5900000000000001 -0.30000000000000004,0.7580000000000001 c-0.19800000000000004,0.16900000000000004 -0.459,0.253 -0.78,0.253 h-6.803 c-0.30600000000000005,0 -0.555,-0.08400000000000002 -0.7470000000000001,-0.253 c-0.19100000000000003,-0.16800000000000004 -0.28700000000000003,-0.42000000000000004 -0.28700000000000003,-0.7580000000000001 V23.807999977588654 H66.49468409204484 V36.860999977588655 c0,0.32200000000000006 -0.10400000000000001,0.5700000000000001 -0.31000000000000005,0.7470000000000001 c-0.20700000000000002,0.17600000000000002 -0.48700000000000004,0.264 -0.8400000000000001,0.264 h-6.756 c-0.6430000000000001,0 -0.972,-0.29900000000000004 -0.988,-0.8960000000000001 V4.756999977588654 zm62.875,32.725 c-0.19900000000000004,0.16800000000000004 -0.41000000000000003,0.275 -0.6320000000000001,0.32100000000000006 a3.123,3.123 0 0 1 -0.6310000000000001,0.07 h-3.47 c-0.276,0 -0.514,-0.05000000000000001 -0.7130000000000001,-0.15000000000000002 c-0.2,-0.1 -0.36800000000000005,-0.234 -0.506,-0.402 a2.384,2.384 0 0 1 -0.3440000000000001,-0.5750000000000001 a4.884,4.884 0 0 1 -0.23,-0.6660000000000001 l-0.7120000000000001,-2.942 c-0.23,0.47500000000000003 -0.5630000000000001,1.015 -1,1.62 a8.495,8.495 0 0 1 -1.6660000000000001,1.7000000000000002 c-0.6740000000000002,0.53 -1.479,0.974 -2.4130000000000003,1.334 c-0.935,0.36000000000000004 -2.007,0.54 -3.218,0.54 c-1.746,0 -3.332,-0.3370000000000001 -4.757,-1.011 a10.904,10.904 0 0 1 -3.6420000000000003,-2.758 c-1.003,-1.1640000000000001 -1.7810000000000001,-2.524 -2.332,-4.08 c-0.552,-1.554 -0.8280000000000001,-3.213 -0.8280000000000001,-4.974 V10.455999977588654 c0,-0.5820000000000001 0.127,-1.022 0.38000000000000006,-1.3210000000000002 c0.252,-0.29900000000000004 0.6540000000000001,-0.44800000000000006 1.206,-0.44800000000000006 h5.308 c0.6600000000000001,0 1.111,0.11000000000000001 1.356,0.3330000000000001 c0.24500000000000002,0.22200000000000003 0.36800000000000005,0.6550000000000001 0.36800000000000005,1.298 v14.96 c0,0.6600000000000001 0.15000000000000002,1.284 0.44800000000000006,1.874 c0.29900000000000004,0.5900000000000001 0.6930000000000002,1.11 1.184,1.562 c0.49000000000000005,0.452 1.045,0.809 1.6660000000000001,1.069 c0.6200000000000001,0.26 1.252,0.39000000000000007 1.8960000000000001,0.39000000000000007 c0.551,0 1.122,-0.13 1.7120000000000002,-0.39000000000000007 a6.361,6.361 0 0 0 1.6310000000000002,-1.046 c0.49800000000000005,-0.43600000000000005 0.908,-0.9500000000000001 1.23,-1.54 c0.32200000000000006,-0.5900000000000001 0.48200000000000004,-1.214 0.48200000000000004,-1.872 V10.386999977588653 c0,-0.26 0.05000000000000001,-0.52 0.15000000000000002,-0.781 c0.1,-0.26 0.24900000000000003,-0.46 0.44800000000000006,-0.5980000000000001 c0.19900000000000004,-0.12200000000000001 0.38700000000000007,-0.20600000000000002 0.5630000000000001,-0.252 c0.17600000000000002,-0.04600000000000001 0.38000000000000006,-0.07 0.6090000000000001,-0.07 h5.194 c0.6580000000000001,0 1.133,0.16200000000000003 1.424,0.48300000000000004 c0.29100000000000004,0.32200000000000006 0.43700000000000006,0.7510000000000001 0.43700000000000006,1.287 v25.716 c0,0.29000000000000004 -0.06500000000000002,0.559 -0.19500000000000003,0.804 s-0.31000000000000005,0.43700000000000006 -0.54,0.5740000000000001 l0.137,-0.06800000000000002 zm26.681,-3.172 c-0.41400000000000003,0.41400000000000003 -0.8700000000000001,0.8580000000000001 -1.367,1.3330000000000002 c-0.49800000000000005,0.47500000000000003 -1.046,0.92 -1.6430000000000002,1.3330000000000002 a9.3,9.3 0 0 1 -1.9300000000000002,1.023 a6.097,6.097 0 0 1 -2.23,0.402 c-2.083,0 -4.002,-0.39000000000000007 -5.757,-1.172 a13.777,13.777 0 0 1 -4.527,-3.206 c-1.264,-1.356 -2.252,-2.9530000000000003 -2.964,-4.792 c-0.7130000000000001,-1.838 -1.069,-3.814 -1.069,-5.929 c0,-2.13 0.35600000000000004,-4.11 1.069,-5.94 c0.7120000000000001,-1.83 1.7000000000000002,-3.424 2.964,-4.78 a13.635,13.635 0 0 1 4.527,-3.194 c1.7550000000000001,-0.774 3.6740000000000004,-1.161 5.757,-1.161 c0.8430000000000001,0 1.613,0.12300000000000001 2.31,0.36800000000000005 a8.51,8.51 0 0 1 1.907,0.9420000000000001 c0.5750000000000001,0.38300000000000006 1.103,0.8160000000000001 1.586,1.298 c0.48200000000000004,0.48300000000000004 0.9380000000000001,0.9540000000000001 1.367,1.4140000000000001 V1.7459999775886534 c0,-0.49000000000000005 0.15000000000000002,-0.903 0.44800000000000006,-1.24 c0.29900000000000004,-0.3380000000000001 0.7470000000000001,-0.506 1.3450000000000002,-0.506 h5.17 c0.2,0 0.41000000000000003,0.04200000000000001 0.6320000000000001,0.126 c0.22200000000000003,0.08500000000000002 0.42500000000000004,0.203 0.6100000000000001,0.35700000000000004 c0.18300000000000002,0.15300000000000002 0.3320000000000001,0.3370000000000001 0.44700000000000006,0.551 c0.11500000000000002,0.21500000000000002 0.17300000000000001,0.452 0.17300000000000001,0.7120000000000001 v34.357 c0,1.18 -0.6200000000000001,1.77 -1.862,1.77 h-4.504 c-0.30600000000000005,0 -0.544,-0.04000000000000001 -0.7120000000000001,-0.11600000000000002 a1.13,1.13 0 0 1 -0.42600000000000005,-0.3330000000000001 a2.319,2.319 0 0 1 -0.31000000000000005,-0.551 a17.13,17.13 0 0 0 -0.3440000000000001,-0.77 l-0.6670000000000001,-1.7930000000000001 zm-13.214,-11.008 a8.39,8.39 0 0 0 0.47100000000000003,2.839 c0.31400000000000006,0.8800000000000001 0.7620000000000001,1.6430000000000002 1.3450000000000002,2.286 a6.384,6.384 0 0 0 2.102,1.528 c0.8200000000000001,0.37600000000000006 1.7280000000000002,0.5630000000000001 2.724,0.5630000000000001 c0.98,0 1.903,-0.17600000000000002 2.769,-0.528 a7.058,7.058 0 0 0 2.263,-1.46 a7.256,7.256 0 0 0 1.552,-2.194 c0.39000000000000007,-0.8430000000000001 0.6090000000000001,-1.747 0.6550000000000001,-2.712 v-0.32200000000000006 a7.26,7.26 0 0 0 -0.552,-2.803 a7.427,7.427 0 0 0 -1.528,-2.3440000000000003 a7.242,7.242 0 0 0 -2.298,-1.597 a6.977,6.977 0 0 0 -2.861,-0.5860000000000001 c-0.996,0 -1.904,0.19500000000000003 -2.724,0.5860000000000001 c-0.8200000000000001,0.39000000000000007 -1.52,0.923 -2.102,1.597 a7.236,7.236 0 0 0 -1.3450000000000002,2.3440000000000003 a8.35,8.35 0 0 0 -0.47000000000000003,2.803 zm48.72,11.008 c-0.41400000000000003,0.41400000000000003 -0.8700000000000001,0.8580000000000001 -1.368,1.3330000000000002 c-0.49800000000000005,0.47500000000000003 -1.046,0.92 -1.6430000000000002,1.3330000000000002 a9.3,9.3 0 0 1 -1.9300000000000002,1.023 a6.097,6.097 0 0 1 -2.23,0.402 c-2.083,0 -4.002,-0.39000000000000007 -5.756,-1.172 a13.777,13.777 0 0 1 -4.5280000000000005,-3.206 c-1.263,-1.356 -2.252,-2.9530000000000003 -2.964,-4.792 c-0.7120000000000001,-1.838 -1.069,-3.814 -1.069,-5.929 c0,-2.13 0.35700000000000004,-4.11 1.069,-5.94 s1.7000000000000002,-3.424 2.964,-4.78 a13.635,13.635 0 0 1 4.5280000000000005,-3.194 c1.754,-0.774 3.673,-1.161 5.756,-1.161 c0.8430000000000001,0 1.613,0.12300000000000001 2.31,0.36800000000000005 a8.51,8.51 0 0 1 1.907,0.9420000000000001 c0.5750000000000001,0.38300000000000006 1.103,0.8160000000000001 1.586,1.298 c0.48300000000000004,0.48300000000000004 0.9380000000000001,0.9540000000000001 1.367,1.4140000000000001 V1.7459999775886534 c0,-0.49000000000000005 0.15000000000000002,-0.903 0.44800000000000006,-1.24 c0.30000000000000004,-0.3380000000000001 0.7470000000000001,-0.506 1.3450000000000002,-0.506 h5.17 c0.2,0 0.41000000000000003,0.04200000000000001 0.6320000000000001,0.126 c0.22300000000000003,0.08500000000000002 0.42600000000000005,0.203 0.6100000000000001,0.35700000000000004 c0.18300000000000002,0.15300000000000002 0.3330000000000001,0.3370000000000001 0.44800000000000006,0.551 c0.11400000000000002,0.21500000000000002 0.17200000000000001,0.452 0.17200000000000001,0.7120000000000001 v34.357 c0,1.18 -0.6200000000000001,1.77 -1.862,1.77 h-4.504 c-0.30600000000000005,0 -0.544,-0.04000000000000001 -0.7120000000000001,-0.11600000000000002 a1.13,1.13 0 0 1 -0.42500000000000004,-0.3330000000000001 a2.319,2.319 0 0 1 -0.31000000000000005,-0.551 a17.13,17.13 0 0 0 -0.3450000000000001,-0.77 l-0.6670000000000001,-1.7930000000000001 zm-13.215,-11.008 a8.39,8.39 0 0 0 0.47100000000000003,2.839 c0.31500000000000006,0.8800000000000001 0.7630000000000001,1.6430000000000002 1.3450000000000002,2.286 a6.384,6.384 0 0 0 2.103,1.528 c0.8200000000000001,0.37600000000000006 1.727,0.5630000000000001 2.723,0.5630000000000001 c0.98,0 1.903,-0.17600000000000002 2.769,-0.528 a7.058,7.058 0 0 0 2.2640000000000002,-1.46 a7.256,7.256 0 0 0 1.55,-2.194 c0.39100000000000007,-0.8430000000000001 0.6100000000000001,-1.747 0.6560000000000001,-2.712 v-0.32200000000000006 a7.26,7.26 0 0 0 -0.552,-2.803 a7.427,7.427 0 0 0 -1.528,-2.3440000000000003 a7.242,7.242 0 0 0 -2.298,-1.597 a6.977,6.977 0 0 0 -2.861,-0.5860000000000001 c-0.996,0 -1.904,0.19500000000000003 -2.723,0.5860000000000001 c-0.8200000000000001,0.39000000000000007 -1.521,0.923 -2.103,1.597 a7.236,7.236 0 0 0 -1.3450000000000002,2.3440000000000003 a8.35,8.35 0 0 0 -0.47000000000000003,2.803 zM197.60068409204484,1.7689999775886536 c0,-0.49000000000000005 0.12200000000000001,-0.903 0.36700000000000005,-1.24 c0.24600000000000002,-0.3380000000000001 0.6670000000000001,-0.506 1.264,-0.506 h5.63 c0.15400000000000003,0 0.31500000000000006,0.04200000000000001 0.48300000000000004,0.126 a1.7000000000000002,1.7000000000000002 0 0 1 0.47100000000000003,0.35700000000000004 c0.14600000000000002,0.15300000000000002 0.268,0.3370000000000001 0.36800000000000005,0.551 c0.1,0.21500000000000002 0.15000000000000002,0.452 0.15000000000000002,0.7120000000000001 v34.334 c0,0.5820000000000001 -0.16500000000000004,1.022 -0.49500000000000005,1.3210000000000002 c-0.32900000000000007,0.29900000000000004 -0.7540000000000001,0.44800000000000006 -1.275,0.44800000000000006 h-5.332 c-0.5970000000000001,0 -1.018,-0.15000000000000002 -1.264,-0.44800000000000006 c-0.24500000000000002,-0.29900000000000004 -0.36700000000000005,-0.7400000000000001 -0.36700000000000005,-1.3210000000000002 V1.7689999775886536 zm38.7,32.61 a15.31,15.31 0 0 1 -4.55,2.907 a13.870000000000001,13.870000000000001 0 0 1 -5.355,1.046 c-2.1,0 -4.083,-0.38300000000000006 -5.952,-1.15 a15.494,15.494 0 0 1 -4.918,-3.182 a15.273,15.273 0 0 1 -3.355,-4.792 c-0.8280000000000001,-1.838 -1.241,-3.837 -1.241,-5.998 c0,-1.348 0.16400000000000003,-2.654 0.49400000000000005,-3.918 a15.45,15.45 0 0 1 1.4020000000000001,-3.55 a15.055,15.055 0 0 1 2.206,-3.045 a13.957,13.957 0 0 1 2.907,-2.379 a14.327,14.327 0 0 1 3.493,-1.54 a14.084,14.084 0 0 1 3.975,-0.551 c1.272,0 2.505,0.16900000000000004 3.7,0.506 c1.195,0.3370000000000001 2.318,0.812 3.367,1.424 c1.05,0.6130000000000001 2.01,1.3490000000000002 2.8840000000000003,2.207 a14.896,14.896 0 0 1 2.252,2.815 a13.58,13.58 0 0 1 1.46,3.263 c0.3440000000000001,1.157 0.517,2.348 0.517,3.573 c0,0.797 -0.012000000000000002,1.448 -0.035,1.9540000000000002 c-0.023000000000000007,0.505 -0.14200000000000002,0.908 -0.35600000000000004,1.206 c-0.21500000000000002,0.30000000000000004 -0.5700000000000001,0.506 -1.069,0.6200000000000001 c-0.49800000000000005,0.11600000000000002 -1.23,0.17300000000000001 -2.194,0.17300000000000001 h-16.546 c0.15300000000000002,0.98 0.463,1.8 0.93,2.46 a5.8420000000000005,5.8420000000000005 0 0 0 1.62,1.573 c0.6130000000000001,0.39100000000000007 1.264,0.6700000000000002 1.9540000000000002,0.8400000000000001 a8.24,8.24 0 0 0 1.953,0.252 c0.552,0 1.118,-0.05800000000000001 1.7000000000000002,-0.17200000000000001 a12.179,12.179 0 0 0 1.6900000000000002,-0.46 a9.557,9.557 0 0 0 1.493,-0.6670000000000001 c0.452,-0.252 0.8160000000000001,-0.517 1.092,-0.792 c0.24500000000000002,-0.2 0.456,-0.3490000000000001 0.6320000000000001,-0.44900000000000007 c0.17600000000000002,-0.1 0.36400000000000005,-0.14900000000000002 0.5630000000000001,-0.14900000000000002 c0.2,0 0.402,0.07 0.6100000000000001,0.20700000000000002 a4.8,4.8 0 0 1 0.7000000000000001,0.5970000000000001 l2.436,2.758 c0.16800000000000004,0.2 0.276,0.38000000000000006 0.32200000000000006,0.54 c0.04600000000000001,0.16100000000000003 0.06900000000000002,0.32600000000000007 0.06900000000000002,0.49400000000000005 c0,0.30700000000000005 -0.08500000000000002,0.5710000000000001 -0.253,0.793 a2.89,2.89 0 0 1 -0.5980000000000001,0.5860000000000001 zm-11.054,-19.143 c-0.5980000000000001,0 -1.176,0.11900000000000002 -1.735,0.35600000000000004 a6.547,6.547 0 0 0 -1.5750000000000002,0.9540000000000001 c-0.49000000000000005,0.3980000000000001 -0.93,0.8500000000000001 -1.3210000000000002,1.356 a8.315,8.315 0 0 0 -0.9540000000000001,1.54 h11.743 a13.536,13.536 0 0 0 -1.045,-1.6550000000000002 a7.081,7.081 0 0 0 -1.287,-1.3330000000000002 a5.558,5.558 0 0 0 -1.6550000000000002,-0.8960000000000001 c-0.6200000000000001,-0.21500000000000002 -1.344,-0.32200000000000006 -2.171,-0.32200000000000006 z" fill="#ffffff" id="svg_3" stroke="#ffffff" stroke-opacity="1" fill-opacity="1"/></g></g></svg>